nColumns=28
nRows=35
DataType=double
version=3
OpenSimVersion=4.1
endheader
time	ground_force_1_vx	ground_force_1_vy	ground_force_1_vz	ground_force_1_px	ground_force_1_py	ground_force_1_pz	ground_force_1_mx	ground_force_1_my	ground_force_1_mz	ground_force_2_vx	ground_force_2_vy	ground_force_2_vz	ground_force_2_px	ground_force_2_py	ground_force_2_pz	ground_force_2_mx	ground_force_2_my	ground_force_2_mz	ground_force_3_vx	ground_force_3_vy	ground_force_3_vz	ground_force_3_px	ground_force_3_py	ground_force_3_pz	ground_force_3_mx	ground_force_3_my	ground_force_3_mz
10.49	-40.2001	235.132	-13.8324	-0.321637	0.006	-0.454427	0	2.13231	0	-44.4942	243.586	9.09542	-0.320627	0.006	-0.741019	0	-0.327203	0	0	0	0	0	0	0	0	0	0
10.5	-39.4989	216.533	-13.7837	-0.321536	0.006	-0.454897	0	2.02703	0	-41.746	227.333	7.99983	-0.322251	0.006	-0.739479	0	-0.392236	0	0	0	0	0	0	0	0	0	0
10.51	-37.4514	197.937	-13.4496	-0.322115	0.006	-0.455453	0	1.85659	0	-39.8946	212.713	6.51504	-0.323394	0.006	-0.737807	0	-0.490763	0	0	0	0	0	0	0	0	0	0
10.52	-33.145	177.651	-12.7347	-0.323356	0.006	-0.456184	0	1.65522	0	-37.7167	198.519	4.83117	-0.324487	0.006	-0.735993	0	-0.569615	0	0	0	0	0	0	0	0	0	0
10.53	-27.1514	154.879	-11.734	-0.324806	0.006	-0.457844	0	1.47594	0	-34.4354	182.007	3.62323	-0.32522	0.006	-0.734137	0	-0.580664	0	0	0	0	0	0	0	0	0	0
10.54	-20.8156	130.292	-10.5412	-0.326059	0.006	-0.460109	0	1.33102	0	-30.2734	163.034	2.97244	-0.325842	0.006	-0.732143	0	-0.497166	0	0	0	0	0	0	0	0	0	0
10.55	-16.3969	105.981	-9.46673	-0.326041	0.006	-0.462151	0	1.22762	0	-25.874	143.639	2.32621	-0.327039	0.006	-0.729171	0	-0.438765	0	0	0	0	0	0	0	0	0	0
10.56	-15.0648	84.0838	-8.06844	-0.326	0.006	-0.466482	0	1.25093	0	-20.6363	123.812	1.65682	-0.330566	0.006	-0.72494	0	-0.418696	0	0	0	0	0	0	0	0	0	0
10.57	-13.466	66.0997	-5.87448	-0.32997	0.006	-0.474763	0	1.35066	0	-14.528	103.215	1.32853	-0.336569	0.006	-0.718678	0	-0.322311	0	0	0	0	0	0	0	0	0	0
10.58	-8.64753	52.6374	-3.83129	-0.338572	0.006	-0.485501	0	1.25133	0	-8.46832	83.6879	1.55362	-0.34474	0.006	-0.710172	0	-0.129424	0	0	0	0	0	0	0	0	0	0
10.59	-2.44245	42.9668	-2.85133	-0.348391	0.006	-0.497851	0	0.908804	0	-3.37371	67.1761	2.14455	-0.352857	0.006	-0.699724	0	0.108517	0	0	0	0	0	0	0	0	0	0
10.6	2.49373	35.7413	-2.76508	-0.355842	0.006	-0.509709	0	0.548321	0	0.299692	53.9836	2.85498	-0.360623	0.006	-0.687333	0	0.376201	0	0	0	0	0	0	0	0	0	0
10.61	5.39297	29.966	-3.25806	-0.360553	0.006	-0.522406	0	0.239142	0	2.83845	43.7289	3.65734	-0.368493	0.006	-0.673	0	0.68769	0	0	0	0	0	0	0	0	0	0
10.62	6.19228	25.8835	-4.13968	-0.35666	0.006	-0.531532	0	0.0139316	0	4.43811	36.112	4.40464	-0.374634	0.006	-0.657038	0	0.986187	0	0	0	0	0	0	0	0	0	0
10.63	4.77286	23.4962	-4.9409	-0.341968	0.006	-0.537557	0	0.0434219	0	4.65341	31.6559	4.91326	-0.378484	0.006	-0.64456	0	1.10836	0	0	0	0	0	0	0	0	0	0
10.64	1.68346	22.0521	-4.98323	-0.324243	0.006	-0.543085	0	0.334089	0	3.96134	31.6665	5.45015	-0.37323	0.006	-0.646177	0	1.07075	0	0	0	0	0	0	0	0	0	0
10.65	-0.67028	15.5216	-3.02552	-0.236115	0.0045	-0.414187	0	0.47512	0	3.76099	34.7236	5.96646	-0.363488	0.006	-0.65794	0	1.04359	0	0	0	0	0	0	0	0	0	0
10.66	0	0	0	0	0	0	0	0	0	4.22493	37.0909	5.94611	-0.358233	0.006	-0.66668	0	1.05463	0	0	0	0	0	0	0	0	0	0
10.67	0	0	0	0	0	0	0	0	0	4.49698	36.7942	5.18297	-0.357953	0.006	-0.666996	0	1.01218	0	0	0	0	0	0	0	0	0	0
10.68	0	0	0	0	0	0	0	0	0	4.19579	34.2642	4.30514	-0.362142	0.006	-0.660084	0	0.918094	0	0	0	0	0	0	0	0	0	0
10.69	0	0	0	0	0	0	0	0	0	3.63776	30.5843	4.09643	-0.370867	0.006	-0.64789	0	0.862574	0	0	0	0	0	0	0	0	0	0
10.7	0	0	0	0	0	0	0	0	0	3.2687	27.265	4.62185	-0.380242	0.006	-0.634746	0	0.870302	0	0	0	0	0	0	0	0	0	0
10.71	0	0	0	0	0	0	0	0	0	2.88931	25.4408	5.44213	-0.384772	0.006	-0.62801	0	0.866882	0	0	0	0	0	0	0	0	0	0
10.72	0	0	0	0	0	0	0	0	0	2.17234	25.6295	6.27445	-0.384098	0.006	-0.631728	0	0.80233	0	0	0	0	0	0	0	0	0	0
10.73	-0.551915	16.2064	-0.552471	-0.246016	0.0048	-0.449072	0	0.742445	0	1.35844	27.474	6.933	-0.381461	0.006	-0.642577	0	0.706572	0	0	0	0	0	0	0	0	0	0
10.74	-1.3607	20.2966	-0.536167	-0.306928	0.006	-0.560713	0	0.980399	0	0.660644	29.8719	7.32277	-0.378104	0.006	-0.653287	0	0.606891	0	0	0	0	0	0	0	0	0	0
10.75	-2.03279	20.182	-0.369068	-0.30633	0.006	-0.561185	0	1.02842	0	-0.131432	32.0558	7.1963	-0.372296	0.006	-0.659777	0	0.436377	0	0	0	0	0	0	0	0	0	0
10.76	-2.99099	20.2183	-0.415168	-0.303975	0.006	-0.559955	0	1.12	0	-1.62558	33.4922	6.80475	-0.365264	0.006	-0.662811	0	0.130939	0	0	0	0	0	0	0	0	0	0
10.77	-4.25008	20.5051	-0.650184	-0.300472	0.006	-0.557375	0	1.26033	0	-3.47498	34.2398	6.60537	-0.360918	0.006	-0.663822	0	-0.179597	0	0	0	0	0	0	0	0	0	0
10.78	-5.41667	21.3711	-0.92664	-0.296843	0.006	-0.549962	0	1.38932	0	-4.98689	35.155	6.55219	-0.356968	0.006	-0.666248	0	-0.391107	0	0	0	0	0	0	0	0	0	0
10.79	-6.37933	22.6744	-1.30425	-0.294793	0.006	-0.542037	0	1.4748	0	-6.18926	36.63	6.5604	-0.350427	0.006	-0.67029	0	-0.522068	0	0	0	0	0	0	0	0	0	0
10.8	-7.27367	24.7876	-1.82032	-0.292908	0.006	-0.531698	0	1.476	0	-7.41998	38.4159	6.60016	-0.345718	0.006	-0.675772	0	-0.641542	0	0	0	0	0	0	0	0	0	0
10.81	-8.31965	27.5758	-2.39256	-0.290111	0.006	-0.520142	0	1.4555	0	-8.49102	40.5559	6.56715	-0.341379	0.006	-0.680758	0	-0.771677	0	0	0	0	0	0	0	0	0	0
10.82	-9.48797	30.1622	-2.72641	-0.288251	0.006	-0.515112	0	1.48075	0	-9.08389	43.0699	6.49573	-0.335945	0.006	-0.684717	0	-0.852642	0	0	0	0	0	0	0	0	0	0
10.83	-10.7349	32.4447	-2.66121	-0.286634	0.006	-0.510545	0	1.54731	0	-9.75897	45.2131	6.50812	-0.33166	0.006	-0.688325	0	-0.923972	0	0	0	0	0	0	0	0	0	0
